<svg xmlns="http://www.w3.org/2000/svg" viewBox="0 0 788.8 486"><defs><style>.cls-1{fill:#fff;}.cls-2{fill:#15477a;}.cls-3{fill:#ffc20e;}.cls-4{fill:#2197d4;}</style></defs><title>KS-Logo-yel</title><g id="Layer_2" data-name="Layer 2"><g id="Layer_1-2" data-name="Layer 1"><rect class="cls-1" width="788.8" height="486"/><path class="cls-2" d="M583.87,301.51A143.65,143.65,0,0,0,586,286.86q.48-6.09.48-11.68c0-3.3-.16-7-.48-11a130.53,130.53,0,0,0-2.14-14.31H507.82V208.39L450,178.08l-.48.28V301.51Z"/><path class="cls-2" d="M41.8,390.69H75.57c.22,1.18.38,2.27.49,3.28s.16,2,.16,2.88a37.57,37.57,0,0,1-.65,6.33H56v9.75H71.42a33.17,33.17,0,0,1,.71,6.25,33.59,33.59,0,0,1-.71,6.33H56V448a42.69,42.69,0,0,1-7,.73A41.83,41.83,0,0,1,41.8,448Z"/><path class="cls-2" d="M110.56,390.77c1.38-.17,2.68-.3,3.88-.39s2.41-.17,3.63-.17c1,0,2.13.06,3.33.17s2.57.22,4.12.39L143.2,448a50.94,50.94,0,0,1-8,.73,31.18,31.18,0,0,1-3.2-.17c-1.07-.11-2.21-.26-3.44-.48l-3-11.11a34.34,34.34,0,0,1-4.28.95,25.27,25.27,0,0,1-4,.32,27.24,27.24,0,0,1-3.77-.28,36.76,36.76,0,0,1-4-.84l-3,11c-1.22.22-2.34.37-3.36.48a27.38,27.38,0,0,1-3,.17,32.72,32.72,0,0,1-3.33-.2c-1.25-.13-2.66-.34-4.2-.6Zm7.11,15.05-5.35,20.56a24.84,24.84,0,0,0,2.55.63,12,12,0,0,0,2.49.25,16.05,16.05,0,0,0,2.68-.21,20.44,20.44,0,0,0,2.76-.59Z"/><path class="cls-2" d="M176.86,427.57c-1.4-2.86-2.85-5.88-4.36-9s-3.05-6.26-4.57-9.38-3-6.24-4.52-9.36-2.93-6.12-4.32-9c.9-.15,2.13-.3,3.68-.43s3-.2,4.41-.2c1.11,0,2.36.07,3.72.2s2.55.28,3.56.43l9.84,22.26,9.44-22.26c1.22-.2,2.51-.37,3.84-.46s2.7-.17,4.08-.17c.91,0,2.09.07,3.53.2s2.66.28,3.67.43L191,427.57V448a42.58,42.58,0,0,1-7,.73,41.82,41.82,0,0,1-7.12-.73Z"/><path class="cls-2" d="M233.67,390.69h33.77c.21,1.18.37,2.27.48,3.28a26.73,26.73,0,0,1,.16,2.88,37.44,37.44,0,0,1-.64,6.33h-19.6V412h15.44a32.29,32.29,0,0,1,.72,6.23,31.65,31.65,0,0,1-.72,6.26H247.84v11.35h20.08a29.45,29.45,0,0,1,.72,6.08,30.35,30.35,0,0,1-.72,6.33H233.67Z"/><path class="cls-2" d="M306.34,403.18H293a27.44,27.44,0,0,1,0-12.49h40.9c.21,1.18.37,2.27.47,3.28a26.85,26.85,0,0,1,.17,2.88,38.5,38.5,0,0,1-.64,6.33H320.5V448a42.69,42.69,0,0,1-7.05.73,41.72,41.72,0,0,1-7.11-.73Z"/><path class="cls-2" d="M371,403.18H357.63a27.44,27.44,0,0,1,0-12.49h40.9c.21,1.18.37,2.27.47,3.28a26.85,26.85,0,0,1,.17,2.88,38.5,38.5,0,0,1-.64,6.33H385.16V448a42.69,42.69,0,0,1-7.05.73A41.72,41.72,0,0,1,371,448Z"/><path class="cls-2" d="M425.17,390.69h33.77c.22,1.18.37,2.27.49,3.28s.15,2,.15,2.88a37.44,37.44,0,0,1-.64,6.33h-19.6V412h15.44a31.52,31.52,0,0,1,.72,6.23,30.92,30.92,0,0,1-.72,6.26H439.34v11.35h20.09a30.09,30.09,0,0,1,.71,6.08,31,31,0,0,1-.71,6.33H425.17Z"/><path class="cls-2" d="M483,390.84c.91-.15,2.11-.3,3.6-.43s2.94-.2,4.33-.2c1.12,0,2.35.07,3.68.2s2.51.28,3.52.43l10.72,38.74,11-38.74c1.23-.2,2.46-.37,3.72-.46s2.57-.17,4-.17c.92,0,2,.07,3.37.2s2.5.28,3.52.43l-18.4,57.22c-1.39.22-2.68.37-3.88.48s-2.37.17-3.48.17-2.17-.06-3.29-.17-2.45-.26-4-.48Z"/><path class="cls-2" d="M555.89,390.84c1.44-.2,2.74-.37,3.92-.46s2.21-.17,3.12-.17,2,.06,3.24.17,2.49.26,3.89.46V448a42.79,42.79,0,0,1-7,.73,41.72,41.72,0,0,1-7.12-.73Z"/><path class="cls-2" d="M600,390.84c1.44-.2,2.74-.37,3.92-.46s2.21-.17,3.12-.17,2,.06,3.24.17,2.49.26,3.89.46v44.83h18.48a31.77,31.77,0,0,1,.52,3.48c.08,1,.12,1.88.12,2.68s0,1.86-.12,2.84-.26,2.16-.52,3.56H600Z"/><path class="cls-2" d="M657.49,390.84c1.44-.2,2.74-.37,3.92-.46s2.21-.17,3.12-.17,2,.06,3.24.17,2.49.26,3.89.46v44.83h18.48a29.28,29.28,0,0,1,.51,3.48c.09,1,.13,1.88.13,2.68s0,1.86-.13,2.84a32.93,32.93,0,0,1-.51,3.56H657.49Z"/><path class="cls-2" d="M714.56,390.69h33.77c.21,1.18.37,2.27.48,3.28s.16,2,.16,2.88a37.44,37.44,0,0,1-.64,6.33h-19.6V412h15.44a32.29,32.29,0,0,1,.72,6.23,31.65,31.65,0,0,1-.72,6.26H728.73v11.35h20.08a29.45,29.45,0,0,1,.72,6.08,30.35,30.35,0,0,1-.72,6.33H714.56Z"/><path class="cls-3" d="M499.1,349.56H467.24a9.69,9.69,0,0,1-.78-3.35,9.54,9.54,0,0,1,.78-3.39H748.41a17.6,17.6,0,0,1,.52,1.87,7.72,7.72,0,0,1,.17,1.48,8.22,8.22,0,0,1-.17,1.54,14.6,14.6,0,0,1-.52,1.85H499.1Z"/><path class="cls-2" d="M746.21,300.87a125.91,125.91,0,0,0,2.94-26,122.22,122.22,0,0,0-3-25l-82.64,0,0-46.74,63.41,0-63.42-23.2L605.26,205l0,95.95Z"/><path class="cls-2" d="M71.11,302.49a178,178,0,0,0,29-2.95v-96l48.82,96A135.29,135.29,0,0,0,164,301.68c5.92.55,12.08.81,18.43.81,5.06,0,10.72-.26,17-.81a109.33,109.33,0,0,0,15-2.14L152.81,178.08l-111,38.54v82.92A175.25,175.25,0,0,0,71.11,302.49Z"/><path class="cls-2" d="M326.06,303.48a178.61,178.61,0,0,0,29-3V233.3l-27.65,16.07-30.62-12.51v63.66A175.19,175.19,0,0,0,326.06,303.48Z"/><path class="cls-4" d="M209.12,64.51c-2-.21-4.34-.5-7.07-.82s-5.6-.67-8.57-1-6-.55-9.06-.66-5.81-.17-8.22-.17c-5.07,0-10,.17-14.82.5s-10.52,1-17.11,2.14l-44.21,92.58V64.51c-5.7-.87-11-1.53-16-2s-9.38-.67-13.31-.67q-5.64,0-12.86.67c-4.82.44-10.21,1.1-16.13,2V216.62l111-38.54Z"/><path class="cls-4" d="M355,233.3V216.58l73.4-151.09q-6.27-1-15.14-1.8c-5.92-.55-10.77-.83-14.49-.83-5.71,0-11.31.22-16.77.67s-10.77,1.09-15.81,2L327.37,157l-40.5-91.51c-4.15-.65-9.06-1.25-14.65-1.8s-10.69-.83-15.3-.83c-5.71,0-11.73.28-18.11.83s-11.41,1.15-15.13,1.8q8.55,17.79,17.78,37T260.05,141q9.38,19.26,18.76,38.52t17.94,37v20.28l30.62,12.51Z"/><path class="cls-4" d="M507.82,208.39V65.49c-5.71-.87-11-1.52-16-2s-9.37-.67-13.31-.67q-5.62,0-12.86.67c-4.82.44-10.21,1.09-16.13,2V178.36l.48-.28Z"/><path class="cls-1" d="M625.52,278.89a14.54,14.54,0,0,1-2.6-1.24,8.09,8.09,0,0,1-2-1.69,6.91,6.91,0,0,1-1.29-2.24,8.7,8.7,0,0,1-.46-3,9.29,9.29,0,0,1,.71-3.73,7.88,7.88,0,0,1,2-2.77,8.8,8.8,0,0,1,3.12-1.71,13.77,13.77,0,0,1,4.1-.57,19.38,19.38,0,0,1,3.92.39,31.91,31.91,0,0,1,4,1.16,19.34,19.34,0,0,1-.57,2.8,17.26,17.26,0,0,1-1.06,2.88c-.69-.29-1.49-.59-2.42-.91a10.73,10.73,0,0,0-3.46-.48,5.84,5.84,0,0,0-1.21.12,3.67,3.67,0,0,0-1,.38,2,2,0,0,0-.73.71,2.14,2.14,0,0,0-.28,1.14,2,2,0,0,0,.75,1.71,7.56,7.56,0,0,0,1.79.95l1.91.76c1.12.45,2.12.91,3,1.37A9,9,0,0,1,636,276.6a6.51,6.51,0,0,1,1.47,2.35,10.42,10.42,0,0,1-.22,7.11,7.92,7.92,0,0,1-2.16,2.91,10.1,10.1,0,0,1-3.52,1.87,16.3,16.3,0,0,1-4.8.65,21.68,21.68,0,0,1-4.35-.39,27.61,27.61,0,0,1-4.08-1.24,24.18,24.18,0,0,1,.56-3c.26-1,.58-2.11,1-3.2a16.41,16.41,0,0,0,6.37,1.59,6.71,6.71,0,0,0,3.16-.62,2.2,2.2,0,0,0,1.13-2.12,2.35,2.35,0,0,0-.24-1.1,2.48,2.48,0,0,0-.63-.77,3.71,3.71,0,0,0-.9-.54c-.33-.15-.67-.29-1-.42Z"/><path class="cls-1" d="M643.87,262.5c.56-.08,1.16-.15,1.81-.22s1.25-.1,1.81-.1,1.11,0,1.73.1,1.2.14,1.73.22l5.65,14.8,5.84-14.8,1.61-.22a14.8,14.8,0,0,1,1.61-.1,16.66,16.66,0,0,1,1.71.1l1.71.22,1.36,28.4-1.42.24a14.06,14.06,0,0,1-2,.11,18.2,18.2,0,0,1-3.31-.35l-.55-16.47-4.38,10.86c-.47.08-1,.15-1.43.2a12.57,12.57,0,0,1-1.31.08q-.6,0-1.23-.06a9.09,9.09,0,0,1-1.32-.22l-3.89-10.7-.44,16.31a15,15,0,0,1-3.18.35,16.82,16.82,0,0,1-3.22-.35Z"/><path class="cls-1" d="M677.67,262.5q1.07-.15,2-.24c.58-.05,1.1-.08,1.55-.08s1,0,1.61.08,1.24.14,1.93.24v28.4a21.38,21.38,0,0,1-3.5.35,21,21,0,0,1-3.54-.35Z"/><path class="cls-1" d="M696.83,268.63h-6.64a13.57,13.57,0,0,1,0-6.21h20.32c.11.59.19,1.13.24,1.63s.08,1,.08,1.43a18,18,0,0,1-.32,3.15h-6.64V290.9a21.28,21.28,0,0,1-3.5.35,21,21,0,0,1-3.54-.35Z"/><path class="cls-1" d="M714.76,262.5q1.08-.15,2-.24c.59-.05,1.1-.08,1.55-.08s1,0,1.62.08,1.23.14,1.92.24V273h7V262.5c.72-.1,1.36-.18,1.93-.24s1.1-.08,1.57-.08,1,0,1.61.08,1.24.14,1.93.24v28.4a21.28,21.28,0,0,1-3.5.35,21,21,0,0,1-3.54-.35V279.28h-7V290.9a21.28,21.28,0,0,1-3.5.35,21,21,0,0,1-3.54-.35Z"/><path class="cls-3" d="M73.73,349.56H41.87a9.64,9.64,0,0,1-.77-3.35,9.5,9.5,0,0,1,.77-3.39H331.34a17.6,17.6,0,0,1,.52,1.87,7.72,7.72,0,0,1,.17,1.48,8.22,8.22,0,0,1-.17,1.54,14.6,14.6,0,0,1-.52,1.85H73.73Z"/><path class="cls-2" d="M436.27,335.91l-7.31-.07.2-15.4a48.17,48.17,0,0,0-5.73-1c-1.91-.13-3.69-.2-5.46-.26s-3.69.06-5.53.2a35.63,35.63,0,0,0-5.86.79l-.2,14.94a.44.44,0,0,1-.45.46l-12.38-.13a.46.46,0,0,1-.46-.66l25.14-53.91a.62.62,0,0,0-.13-.59,33.78,33.78,0,0,0-9.61-5.27,56.24,56.24,0,0,0-10.14-2.5.51.51,0,0,0-.52.33l-36.33,75.7a4.69,4.69,0,0,0-.4,2,5.12,5.12,0,0,0,4.87,5.07h.4l39.36.39a.45.45,0,0,1,.46.46l-.14,15.8a37.66,37.66,0,0,0,5.8.92c1.91.13,3.75.26,5.59.26s3.56,0,5.4-.13a34.33,34.33,0,0,0,5.73-.85l.19-16.26,7.31.13a43.26,43.26,0,0,0,.2-20.4Z"/><path class="cls-4" d="M726.93,203.12h.14c.09-.45.15-.87.24-1.31h0A124.51,124.51,0,0,0,730,177.53a128.65,128.65,0,0,0-3-25.67l-63.54,0,0-36.21,80.66,0a155.48,155.48,0,0,0,2.61-26,116.13,116.13,0,0,0-.65-11.85c-.45-4.17-1.13-8.67-2-13.49l-138.93.07L605.26,201v4l58.25-25.07Z"/></g></g></svg>